<svg xmlns="http://www.w3.org/2000/svg" width="1024" height="1024" viewBox="0 0 1024 1024" role="img" aria-label="promptring concept 3 variant — light green background with dark terminal and ring badge">
  <defs>
    <linearGradient id="c3gbg" x1="0" y1="0" x2="1" y2="1">
      <stop offset="0" stop-color="#ff8a3d"/>
      <stop offset="1" stop-color="#f24d63"/>
    </linearGradient>
    <linearGradient id="c3gwin" x1="0" y1="0" x2="0" y2="1">
      <stop offset="0" stop-color="#2a3242"/>
      <stop offset="1" stop-color="#1b2130"/>
    </linearGradient>
  </defs>

  <rect x="0" y="0" width="1024" height="1024" rx="230" ry="230" fill="url(#c3gbg)"/>

  <!-- terminal window -->
  <rect x="168" y="276" width="688" height="472" rx="56" fill="url(#c3gwin)"/>
  <!-- title bar -->
  <path d="M168 332 a56 56 0 0 1 56 -56 h576 a56 56 0 0 1 56 56 v36 h-688 z" fill="#0f1420" opacity="0.55"/>
  <g>
    <circle cx="244" cy="324" r="17" fill="#ff5f57"/>
    <circle cx="300" cy="324" r="17" fill="#febc2e"/>
    <circle cx="356" cy="324" r="17" fill="#28c840"/>
  </g>

  <!-- prompt chevron > -->
  <path d="M260 470 L356 552 L260 634" fill="none" stroke="#36d399" stroke-width="44" stroke-linecap="round" stroke-linejoin="round"/>
  <!-- cursor block -->
  <rect x="404" y="506" width="120" height="92" rx="16" fill="#e8eef7"/>

  <!-- ring / bell badge -->
  <g>
    <circle cx="788" cy="300" r="118" fill="#0a0b10"/>
    <circle cx="788" cy="300" r="96" fill="#ff4d4d"/>
    <path d="M788 246 c-40 0 -64 28 -64 70 c0 30 -8 44 -22 56 c-8 7 -3 20 8 20 h156 c11 0 16 -13 8 -20 c-14 -12 -22 -26 -22 -56 c0 -42 -24 -70 -64 -70 z" fill="#ffffff"/>
    <circle cx="788" cy="402" r="16" fill="#ffffff"/>
  </g>
</svg>
